<svg xmlns="http://www.w3.org/2000/svg" viewBox="0 0 539.31 141.85"><defs><style>.cls-1{font-size:107.46px;fill:#fff;font-family:Impact;}.cls-2{fill:#f50;}</style></defs><g id="Layer_2" data-name="Layer 2"><g id="Layer_1-2" data-name="Layer 1"><text class="cls-1" transform="translate(0 106.32)">Flash</text><text class="cls-1" transform="translate(351.63 106.24)">ack!</text><path class="cls-2" d="M303.4,91.11c1.11-1.13,1.67-3.93,1.67-8.38V72.44q0-7.09-1.5-8.59a6.5,6.5,0,0,0-3.34-1.29v30A6.34,6.34,0,0,0,303.4,91.11Z"/><path class="cls-2" d="M303.91,42.82q1.15-2.07,1.16-11.89,0-5.17-.95-7.26a4.56,4.56,0,0,0-2.49-2.62,7.74,7.74,0,0,0-1.4-.32V44.79C302.07,44.56,303.31,43.9,303.91,42.82Z"/><path class="cls-2" d="M313.17.26,248.54,42.49c-8.95,5.85-9.24,15.34-.65,21.43l65.28,46.22Z"/><path class="cls-2" d="M346.42,80.18a30.46,30.46,0,0,0-30-30.45v60.89A30.45,30.45,0,0,0,346.42,80.18Z"/><path class="cls-2" d="M338.41,22.31A22.32,22.32,0,0,0,316.42,0V44.62A22.32,22.32,0,0,0,338.41,22.31Z"/></g></g></svg>